# xmcd
#
# Track frame offsets:
#	150
#	18094
#	30965
#	49070
#	67263
#	82166
#	95733
#	108155
#	127463
#	146134
#	159773
#	179933
#	199495
#	217790
#	230251
#	255214
#
# Disc length: 3782 seconds
#
# Revision: 0
# Processed by: cddbd v1.5.2PL0 Copyright (c) Steve Scherf et al.
# Submitted via: EasyCDDAExtractor 2010.6.0.0
#
DISCID=e30ec410
DTITLE=Various Artist - Midnight Soul [CD3]
DYEAR=2006
DGENRE=Soul
TTITLE0=Shanice - Lovin' You
TTITLE1=Boyz II Men - In The Still Of The Night (I'll Remember)
TTITLE2=Syreeta - Heavy Day
TTITLE3=Smokey Robinson - Daylight And Darkness
TTITLE4=The Commodores - This Is Your Life
TTITLE5=Barbara McNair - Steal Away Tonight
TTITLE6=Billy Eckstine - Maybe Today
TTITLE7=The Commodores - Easy
TTITLE8=Jr Walker and The All Stars - Walk In The Night
TTITLE9=Marvin Gaye - Inner City Blues
TTITLE10=Smokey Robinson - Cruisin'
TTITLE11=The Commodores - Nightshift
TTITLE12=Lionel Richie - Say You, Say Me
TTITLE13=Michael Jackson - Ben
TTITLE14=Boyz II Men - On Bended Knee
TTITLE15=The Miracles - You Need a Miracle
EXTD=
EXTT0=
EXTT1=
EXTT2=
EXTT3=
EXTT4=
EXTT5=
EXTT6=
EXTT7=
EXTT8=
EXTT9=
EXTT10=
EXTT11=
EXTT12=
EXTT13=
EXTT14=
EXTT15=
PLAYORDER=
